# xmcd
#
# Track frame offsets:
# 150
# 19573
# 40761
# 53728
# 65430
# 86938
# 99013
# 123793
# 138631
# 177462
# 202364
# 240655
# 260108
# 282862
# 302473
# 316170
#
# Disc length: 4331 seconds
#
# Revision: 0
# Processed by: cddbd v1.5.2PL0 Copyright (c) Steve Scherf et al.
# Submitted via: Audion 3.0.2 (http://www.panic.com/audion/)
#
DISCID=df10e910
DTITLE=Maggie Roche - Where Do I Come From? D2
DYEAR=1900
DGENRE=
TTITLE0=Speak
TTITLE1=Big Nuthin'
TTITLE2=Cloud Dancing
TTITLE3=In the World
TTITLE4=Nocturne
TTITLE5=Feeling Is Mutual
TTITLE6=A Dove
TTITLE7=You're the One
TTITLE8=Can We Go Home Now?
TTITLE9=You (Make My Life Come True)
TTITLE10=My Winter Coat
TTITLE11=A Prayer
TTITLE12=One Season
TTITLE13=Broken Places
TTITLE14=Family of Bones
TTITLE15=Where Do I Come From?
EXTD=
EXTT0=
EXTT1=
EXTT2=
EXTT3=
EXTT4=
EXTT5=
EXTT6=
EXTT7=
EXTT8=
EXTT9=
EXTT10=
EXTT11=
EXTT12=
EXTT13=
EXTT14=
EXTT15=
PLAYORDER=
